# xmcd CD database file
#
# Track frame offsets:
#	150
#	28973
#	66901
#	99997
#	129225
#	159069
#	194203
#	224129
#	247170
#	278162
#
# Disc length: 4198 seconds
#
# Revision: 0
# Processed by: cddbd v1.5PL3 Copyright (c) Steve Scherf et al.
# Submitted via: CDex 1.51
#
DISCID=9a10640a
DTITLE=The Todd Butler Group - Lockout
DYEAR=2000
DGENRE=Jazz
TTITLE0=Lockout
TTITLE1=Witch Hunt
TTITLE2=Like Vertigo
TTITLE3=Nat's Groove
TTITLE4=Del Sasser
TTITLE5=I Remember Clifford
TTITLE6=The Meltdown
TTITLE7=Serenity
TTITLE8=Rosie's Place
TTITLE9=Twice Around
EXTD=YEAR: 2000
EXTT0=
EXTT1=
EXTT2=
EXTT3=
EXTT4=
EXTT5=
EXTT6=
EXTT7=
EXTT8=
EXTT9=
PLAYORDER=
